<?xml version="1.0" encoding="UTF-8"?>
<svg id="_Слой_1" data-name="Слой 1" xmlns="http://www.w3.org/2000/svg" viewBox="0 0 63.64 74.27">
  <defs>
    <style>
      .cls-1 {
        fill: #8c8e98;
        stroke-width: 0px;
      }
    </style>
  </defs>
  <path class="cls-1" d="m0,36.11c.1-6.74,2.55-11.39,7.38-14.8,1.71-1.21,3.43-1.46,4.92.16,1.46,1.57,1.29,3.34-.05,4.95-.84,1.02-1.86,1.91-2.66,2.96-2.7,3.51-2.57,8.44.23,11.43,2.89,3.09,7.38,3.3,11.23.25,5.73-4.53,11.27-9.3,17.03-13.8,7.43-5.8,15.75-5.29,21.43,1.11,5.7,6.43,5.49,15.76-.56,22.14-1.37,1.44-2.83,2.82-4.36,4.09-1.61,1.34-3.42,1.48-4.9-.14-1.41-1.55-1.35-3.38,0-4.98,1.38-1.65,3.08-3.05,4.36-4.77,2.91-3.87,2.66-8.84-.64-11.75-3.59-3.17-7.33-2.57-10.83.21-5.84,4.65-11.51,9.53-17.42,14.1-5.14,3.97-10.83,4.96-16.78,1.8-5.49-2.92-7.87-7.81-8.38-12.97Z"/>
  <path class="cls-1" d="m35.32,4.9c-1.8,5.8-3.54,12.23-5.84,18.45-1.08,2.91-3.74,3.26-6.05,1.06-4.21-4.01-8.4-8.06-12.31-12.35-2.6-2.85-1.77-5.65,1.91-6.88C18.38,3.39,23.79,1.74,29.25.32c4.1-1.07,6.36.59,6.07,4.59Z"/>
  <path class="cls-1" d="m35.37,74.27c-6.47-.06-10.85-4.56-10.79-11.08.06-6.23,4.87-11.11,10.96-11.09,6.25.02,11.36,5.26,11.22,11.5-.14,6.06-5.13,10.73-11.39,10.67Z"/>
</svg>