<?xml version="1.0" encoding="UTF-8"?>
<svg id="_Слой_2" data-name="Слой 2" xmlns="http://www.w3.org/2000/svg" viewBox="0 0 937.65 219.28">
  <defs>
    <style>
      .cls-1 {
        fill: #2f2b29;
        stroke-width: 0px;
      }
    </style>
  </defs>
  <g id="_Слой_2-2" data-name=" Слой 2">
    <g>
      <path class="cls-1" d="m615.43,43.45c-2.06.63-4.19,1.08-6.17,1.91-37.15,15.62-74.28,31.29-111.43,46.92-2.43,1.02-4.95,2.18-7.52,2.48-6.29.72-10.96-3.83-11.01-10.62-.11-15.16-.05-30.32-.06-45.49,0-10.83.25-21.67-.11-32.49C478.97,1.31,480.42,0,485.24,0c61.65.15,123.3.1,184.95.1,7.83,0,15.67.16,23.49-.03,3.56-.09,4.5,1.25,4.5,4.68-.08,69.81-.09,139.63.01,209.44,0,4.03-1.4,5.1-5.23,5.09-69.65-.09-139.3-.1-208.94,0-3.74,0-4.86-1.18-4.84-4.88.13-24.99-.03-49.99.11-74.98.08-14.24,6.59-24.87,19.16-31.56,37.62-20.02,75.3-39.95,112.93-59.94,1.65-.88,3.15-2.04,4.72-3.06-.23-.47-.46-.95-.69-1.42h.02Zm23.49,44.93c-.32-.33-.65-.65-.97-.98-1.15.56-2.39.98-3.43,1.7-22.48,15.48-45.02,30.88-67.31,46.63-3.22,2.28-6.02,5.9-7.67,9.52-5.24,11.46,2.91,21.86,15.45,20.25,6.66-.85,11.02-5.11,14.78-10.16,15.71-21.09,31.39-42.19,47.05-63.31.83-1.12,1.4-2.43,2.08-3.65h.02Zm-19.78-45.75c-.13-.13-.23-.23-.33-.34-.11.2-.25.4-.3.61-.02.07.19.2.29.3.12-.2.23-.39.34-.58h0Zm-2.34.62c-.11.11-.33.25-.31.33.05.24.2.45.31.67.11-.11.33-.24.31-.33-.05-.24-.2-.45-.31-.67Z"/>
      <path class="cls-1" d="m780.29,32.74c40.1,12.87,80.25,25.56,120.26,38.67,23.97,7.85,36.71,25.42,36.93,50.62.26,30.33-.01,60.66.17,90.99.03,4.72-1.71,5.96-6.15,5.96-68.82-.09-137.65-.09-206.47,0-4.26,0-5.85-1.34-5.85-5.75.1-69.16.1-138.32,0-207.47,0-4.13,1.34-5.52,5.46-5.51,69.16.09,138.32.09,207.47,0,4,0,5.62,1.12,5.54,5.38-.23,12.83-.01,25.66-.13,38.49-.1,11.34-6.44,16.16-17.63,14.03-45.81-8.71-91.64-17.31-137.47-25.93-.65-.12-1.32-.11-1.99-.16-.05.23-.09.46-.14.68h0Zm-4.67,53.04c-.22.33-.45.66-.67.98.41.69.74,1.45,1.24,2.06,18.25,22.27,36.46,44.58,54.87,66.72,2.61,3.14,5.99,5.82,9.44,8.06,6.8,4.4,15.57,3.5,21.9-1.71,5.94-4.89,7.77-12.52,4.93-20.39-2.74-7.59-8.71-11.98-15.45-15.56-22.34-11.88-44.7-23.72-67.06-35.56-3.03-1.6-6.12-3.08-9.19-4.61h-.01Z"/>
      <path class="cls-1" d="m316.89,56.1c-5.21,3.19-10.42,6.37-15.61,9.59-14.59,9.03-29.13,18.14-43.77,27.09-8.95,5.47-17.53.88-17.61-9.6-.18-26.16-.03-52.31-.11-78.47-.01-3.23,1.17-4.6,4.39-4.42,2.16.12,4.33.01,6.5.01h199.43c5.35,0,8.02,2.6,8.03,7.79v71.47c0,.67-.01,1.33,0,2,.1,5.08-.79,9.73-5.82,12.34-4.75,2.46-8.95.84-13.13-1.77-17.94-11.21-35.93-22.34-53.91-33.49-1.4-.87-2.84-1.68-5.06-2.02.73,1.28,1.36,2.64,2.21,3.84,23.59,33.3,47.15,66.63,70.88,99.83,3.34,4.67,5.13,9.29,4.94,15.17-.41,12.65-.25,25.32-.06,37.98.06,4.16-1.5,5.51-5.56,5.51-69.14-.08-138.28-.09-207.43,0-4.21,0-5.47-1.59-5.43-5.61.15-13.99-.14-27.99.17-41.98.07-2.9,1.47-6.15,3.19-8.58,23.77-33.79,47.7-67.46,71.59-101.16,1.04-1.47,2.03-2.98,3.05-4.47-.29-.35-.59-.71-.88-1.06h0Z"/>
      <path class="cls-1" d="m.12,109.05C.12,74.89.23,40.74,0,6.58-.03,1.4,1.59.12,6.54.2c17.66.27,35.32.2,52.98.04,4.05-.04,5.55,1.03,5.31,5.39-2.62,48.41-5.05,96.83-7.54,145.24-.2,3.83-.67,7.68-.39,11.47.1,1.36,1.94,3.53,3.19,3.69,3.6.46,7.33.37,10.96,0,7.57-.79,11.73-5.72,11.37-13.69-.98-21.97-2.15-43.93-3.26-65.89-1.35-26.79-2.64-53.58-4.15-80.36-.24-4.3.85-5.9,5.4-5.85,19.66.2,39.32.16,58.98,0,4.18-.03,5.41,1.32,5.18,5.55-2.56,47.08-4.94,94.16-7.36,141.24-.13,2.49-.27,5-.13,7.49.31,5.66,4.14,10.01,9.66,11.23,13.99,3.09,16.37,1.28,15.67-12.63-2.41-48.25-4.91-96.5-7.42-144.74-.42-8.06-.51-8.07,7.43-8.07,16.83,0,33.66.14,50.48-.06,4.38-.05,5.7,1.36,5.69,5.73-.11,68.98-.11,137.96,0,206.93,0,4.62-1.52,6.06-6.07,6.06-68.81-.1-137.62-.11-206.43.03-5.05.01-6.09-1.95-6.07-6.48.14-34.49.08-68.98.07-103.47h.03Z"/>
    </g>
  </g>
</svg>