<?xml version="1.0" encoding="UTF-8"?>
<svg id="_Слой_2" data-name="Слой 2" xmlns="http://www.w3.org/2000/svg" viewBox="0 0 450.48 451.47">
  <defs>
    <style>
      .cls-1 {
        fill: #2f2b29;
        stroke-width: 0px;
      }
    </style>
  </defs>
  <g id="_Слой_2-2" data-name=" Слой 2">
    <g>
      <path class="cls-1" d="m.84,236.53h5.1c67.65,0,135.3.04,202.96-.08,4.33,0,6.02.8,6.01,5.66-.16,67.98-.11,135.97-.04,203.95,0,3.49-.38,5.42-4.77,5.41-68.65-.13-137.3-.09-205.95-.1-1.13,0-2.26-.2-3.85-.35-.09-1.93-.23-3.71-.23-5.48-.02-23.16.17-46.33-.07-69.48-.17-16.2,6.89-27.46,21.17-34.96,40.69-21.37,81.24-43.03,121.83-64.59,1.13-.6,2.18-1.36,2.9-2.98-1.44.45-2.93.77-4.32,1.35-41.44,17.41-82.87,34.85-124.31,52.28-1.38.58-2.75,1.22-4.17,1.68-6.46,2.1-12.82-1.66-12.87-8.34-.21-27.49-.07-54.98-.03-82.47,0-.3.25-.6.63-1.48v-.02Zm157.77,84.91c-.31-.29-.63-.57-.94-.86-.71.33-1.48.57-2.11,1-23.17,15.95-46.36,31.86-69.42,47.95-2.51,1.75-4.68,4.29-6.36,6.89-4.11,6.37-3.72,13.45.53,18.03,4.41,4.75,12.9,6.41,18.86,2.69,3.97-2.48,7.6-5.99,10.44-9.74,15.29-20.15,30.29-40.52,45.38-60.82,1.25-1.68,2.41-3.42,3.62-5.13h0Z"/>
      <path class="cls-1" d="m450.44,451.39h-6.26c-67.31,0-134.62.01-201.93.01-4.39,0-6.58-2.14-6.59-6.41,0-67.64-.02-135.29,0-202.93,0-1.63.16-3.26.26-5.19h214.53v18.1c0,8.16.03,16.33,0,24.49-.04,11.34-5.78,16.21-16.93,14.11-28.62-5.39-57.21-10.92-85.83-16.33-13.84-2.62-27.7-5.1-41.56-7.58-1.12-.2-2.32.08-3.67.77,1.41.49,2.82,1,4.24,1.46,35.96,11.54,72,22.88,107.88,34.69,23.48,7.72,35.82,25.38,35.86,50.13.05,29.49.01,58.98.01,88.47v6.22h-.01Zm-160-131.41c-.22.26-.44.52-.66.78.46.67.88,1.38,1.39,2,17.84,21.74,35.62,43.53,53.63,65.13,2.93,3.52,6.58,6.67,10.44,9.15,6.75,4.32,13.79,3.23,20.19-1.05,6.37-4.27,8.36-10.64,6.79-17.94-1.87-8.71-8.15-13.82-15.57-17.77-11.74-6.26-23.52-12.47-35.29-18.68-13.64-7.21-27.28-14.41-40.92-21.61h0Z"/>
      <path class="cls-1" d="m374.23,55.98c10.5,15,20.95,30.03,31.51,44.98,14.13,20,28.38,39.91,42.49,59.93,1.09,1.54,2.08,3.57,2.1,5.38.16,15.33.08,30.66.05,45.98,0,.63-.24,1.26-.41,2.14h-214.02c-.1-1.72-.27-3.48-.28-5.24-.02-13.5-.18-27,.11-40.49.06-2.92,1.15-6.25,2.83-8.64,23.38-33.24,46.95-66.34,70.46-99.48,1.14-1.61,2.23-3.27,2.8-5.77-1.44.8-2.91,1.54-4.31,2.4-17.7,10.95-35.42,21.88-53.06,32.92-4.34,2.72-8.64,4.43-13.52,1.62-4.71-2.71-5.35-7.21-5.34-12.09.05-24.83.02-49.65.03-74.48,0-1.62.17-3.24.28-5.12h214.2c.1,1.55.28,3.14.28,4.73.02,24.99-.03,49.99.05,74.98.02,4.93-.64,9.37-5.4,12.02-4.9,2.73-9.16,1.03-13.53-1.69-18.8-11.71-37.7-23.26-56.56-34.87l-1.11-.21c.12.33.24.66.35.99h0Z"/>
      <path class="cls-1" d="m160.12,162.67c-2.77-54.66-5.5-108.37-8.24-162.52h62.48v214.11H.39V0h63.5c-2.74,54.12-5.47,107.95-8.22,162.09,5.82,0,11.48.68,16.89-.18,5.77-.92,8.72-5.98,8.4-12.46-1.29-26.3-2.64-52.59-3.99-78.88-1.13-21.97-2.28-43.93-3.41-65.9-.07-1.45,0-2.91,0-4.63h68.77c-.41,9.04-.77,17.81-1.22,26.57-2.09,40.6-4.21,81.21-6.29,121.81-.47,9.26,4.08,14.1,13.26,14.25,3.79.06,7.59,0,12.05,0h0Z"/>
    </g>
  </g>
</svg>